<?xml version="1.0" encoding="UTF-8"?>
<svg id="Layer_1" xmlns="http://www.w3.org/2000/svg" version="1.1" viewBox="0 0 174 44">
  <!-- Generator: Adobe Illustrator 29.1.0, SVG Export Plug-In . SVG Version: 2.1.0 Build 142)  -->
  <defs>
    <style>
      .st0 {
        fill: #fff;
      }

      .st1 {
        fill: #937584;
      }
    </style>
  </defs>
  <g>
    <rect class="st1" x="29.9" y="10.2" width="144" height="23.5"/>
    <path class="st0" d="M22,.8C10.3.8.8,10.3.8,22s9.5,21.2,21.2,21.2,21.2-9.5,21.2-21.2S33.7.8,22,.8h0Z"/>
    <path class="st1" d="M22,44C9.9,44,0,34.1,0,22S9.9,0,22,0s22,9.9,22,22-9.9,22-22,22h0ZM22,.8C10.3.8.8,10.3.8,22s9.5,21.2,21.2,21.2,21.2-9.5,21.2-21.2S33.7.8,22,.8h0Z"/>
    <circle class="st1" cx="22" cy="22" r="19.5"/>
  </g>
  <g>
    <path class="st0" d="M55.8,17.3h5.2c1.3,0,2.2.3,2.8.9.4.4.7.9.7,1.6h0c0,1.2-.7,1.9-1.6,2.3,1.2.4,2,1.1,2,2.5h0c0,1.8-1.4,2.8-3.8,2.8h-5.2v-10.1ZM60.3,21.4c.9,0,1.3-.3,1.3-.9h0c0-.6-.4-.9-1.3-.9h-1.8v1.8h1.8ZM60.7,25.2c.9,0,1.3-.3,1.3-.9h0c0-.6-.4-.9-1.4-.9h-2.1v1.9h2.2Z"/>
    <path class="st0" d="M65.5,17.3h2.8v10.1h-2.8v-10.1Z"/>
    <path class="st0" d="M69.1,22.4h0c0-2.9,2.3-5.3,5.5-5.3s5.5,2.3,5.5,5.2h0c0,2.9-2.3,5.3-5.5,5.3s-5.5-2.3-5.5-5.2ZM77.2,22.4h0c0-1.5-1.1-2.8-2.6-2.8s-2.6,1.2-2.6,2.7h0c0,1.5,1.1,2.8,2.6,2.8s2.6-1.2,2.6-2.7Z"/>
    <path class="st0" d="M80.8,17.3h2.8v7.7h4.9v2.5h-7.7v-10.1Z"/>
    <path class="st0" d="M88.6,22.4h0c0-2.9,2.3-5.3,5.5-5.3s5.5,2.3,5.5,5.2h0c0,2.9-2.3,5.3-5.5,5.3s-5.5-2.3-5.5-5.2ZM96.7,22.4h0c0-1.5-1.1-2.8-2.6-2.8s-2.6,1.2-2.6,2.7h0c0,1.5,1.1,2.8,2.6,2.8s2.6-1.2,2.6-2.7ZM94.6,14l2.6.8-2.1,1.9h-1.9l1.5-2.7Z"/>
    <path class="st0" d="M99.9,22.4h0c0-3,2.3-5.3,5.5-5.3s3,.6,4.1,1.5l-1.7,2c-.7-.6-1.5-1-2.5-1-1.5,0-2.6,1.2-2.6,2.8h0c0,1.7,1.1,2.8,2.8,2.8s1.2-.1,1.6-.4v-1.2h-2v-2.1h4.7v4.6c-1.1.9-2.6,1.6-4.4,1.6-3.2,0-5.5-2.2-5.5-5.2Z"/>
    <path class="st0" d="M110.8,17.3h2.8v10.1h-2.8v-10.1Z"/>
    <path class="st0" d="M114.4,22.4h0c0-3,2.3-5.3,5.3-5.3s3.4.9,4.3,2.1l-2.1,1.6c-.6-.7-1.2-1.2-2.2-1.2-1.4,0-2.4,1.2-2.4,2.7h0c0,1.6,1,2.7,2.4,2.7s1.7-.5,2.3-1.2l2.1,1.5c-1,1.3-2.2,2.3-4.5,2.3s-5.2-2.2-5.2-5.2Z"/>
    <path class="st0" d="M123.9,22.4h0c0-2.9,2.3-5.3,5.5-5.3s5.5,2.3,5.5,5.2h0c0,2.9-2.3,5.3-5.5,5.3s-5.5-2.3-5.5-5.2ZM132,22.4h0c0-1.5-1.1-2.8-2.6-2.8s-2.6,1.2-2.6,2.7h0c0,1.5,1.1,2.8,2.6,2.8s2.6-1.2,2.6-2.7Z"/>
    <path class="st0" d="M134.8,26l1.6-1.9c1,.8,2.1,1.2,3.3,1.2s1.2-.3,1.2-.7h0c0-.4-.3-.7-1.7-1-2.2-.5-3.8-1.1-3.8-3.2h0c0-1.9,1.5-3.3,3.9-3.3s3.1.5,4.2,1.3l-1.4,2c-.9-.7-1.9-1-2.8-1s-1,.3-1,.7h0c0,.5.3.7,1.8,1,2.3.5,3.8,1.3,3.8,3.2h0c0,2.1-1.6,3.3-4.1,3.3s-3.5-.6-4.8-1.7Z"/>
  </g>
  <g>
    <path class="st0" d="M22.2,19.6c.3-.1.6-.2,1-.2,1.1,0,3.1,0,4.3,0s1.2.3,1.7.7c.7.6,2,3.1,2.5,4s.3.7.5,1.1h2.6c.5-1.5,2.3-2.2,3.6-1.2,2,1.6.3,4.8-2.2,3.8-.7-.3-1-.8-1.3-1.5h-2.6c-.1,0-.3.7-.4.9-.6,1-1.3,2.5-2,3.4-.6.8-1.5,1.4-2.5,1.4s-.4,0-.6,0c-1.6,0-4.1.4-5.2-.7s-2.2-3.4-2.5-4.2c-.1-.3-.3-.7-.3-1-.3.1-.6.2-1,.2-1.2,0-3.1,0-4.3,0-.4,0-.8-.3-1,0-.4.5-.7,1.4-1.1,1.9.3.5.6.9.6,1.5.1,2.2-2.7,3.3-4,1.5-1.3-1.7.4-4,2.4-3.5l1.3-2.2c-.2-.2-.4-.5-.6-.8-.8-1.3-2.4-3.6-2.2-5.1s1.9-3.8,2.4-4.5c1.2-1.8,3-1.3,4.8-1.3s.9-.1,1.3,0,1,.2,1.5.3l1.5-1.9c-1.2-1.9.6-4.3,2.8-3.3,1.8.8,1.6,3.5-.3,4.1s-1,0-1.6,0l-1.4,1.9c.7,1.3,1.6,2.5,2.2,3.8s.3.7.4,1.1ZM21.7,9.6c-1.1.2-1.1,1.9,0,2.1,1.6.3,1.6-2.4,0-2.1ZM13.4,14.8c-.4,0-1,.2-1.2.6s-2.2,3.7-2.3,4.1,0,.8.2,1.3c.3.7,1.6,3,2.1,3.6.3.4.8.7,1.3.7,1,0,3.1,0,4.1,0,.6,0,1-.3,1.3-.7s1.8-2.9,2.1-3.6.3-.9,0-1.5c-.3-.8-1.5-2.8-2.1-3.6s-.9-.8-1.6-.9-2.9,0-3.8,0ZM23,20.6c-.4,0-.7.3-1,.6-.5.5-1.2,2-1.6,2.7s-.9,1.3-.8,2.2,1.8,3.3,2.1,3.9.7.9,1.6,1,2.7,0,3.7,0,1.1-.2,1.5-.7,1.9-3.1,2.2-3.7.1-1.1,0-1.5c-.3-.7-1.6-3-2.1-3.6-.3-.4-.8-.7-1.3-.7-1,0-3.4-.1-4.3,0ZM36.7,24.7c-1.1.2-1.2,1.8,0,2.1,1.6.4,1.7-2.3,0-2.1ZM9.3,28.7c-1.1.2-1.1,1.9,0,2.1,1.6.2,1.5-2.4,0-2.1Z"/>
    <path class="st0" d="M10.9,20.4c-.1-.1-.2-.4-.1-.6.6-1,1.1-2.2,1.8-3.2s.5-.8,1-.5.3.5.2.8c-.4,1-1.5,2.4-2,3.4-.2.3-.6.3-.9,0Z"/>
    <path class="st0" d="M27.7,22.4c0,0-.4.2-.5.2-.8,0-3,0-3.8,0s-.8-1.1-.2-1.2h4.2c.4.1.6.7.3,1Z"/>
  </g>
</svg>