<?xml version="1.0" encoding="UTF-8"?>
<svg id="Layer_1" xmlns="http://www.w3.org/2000/svg" version="1.1" viewBox="0 0 173.9 44">
  <!-- Generator: Adobe Illustrator 29.1.0, SVG Export Plug-In . SVG Version: 2.1.0 Build 142)  -->
  <defs>
    <style>
      .st0 {
        fill: #fff;
      }

      .st1 {
        fill: #da8027;
      }
    </style>
  </defs>
  <g>
    <rect class="st1" x="29.9" y="10.2" width="144" height="23.5"/>
    <path class="st0" d="M22,.8C10.3.8.8,10.3.8,22s9.5,21.2,21.2,21.2,21.2-9.5,21.2-21.2S33.7.8,22,.8h0Z"/>
    <path class="st1" d="M22,44C9.9,44,0,34.1,0,22S9.9,0,22,0s22,9.9,22,22-9.9,22-22,22h0ZM22,.8C10.3.8.8,10.3.8,22s9.5,21.2,21.2,21.2,21.2-9.5,21.2-21.2S33.7.8,22,.8h0Z"/>
    <circle class="st1" cx="22" cy="22" r="19.5"/>
  </g>
  <g>
    <path class="st0" d="M55.8,17.3h3.4c3.1,0,5,1.8,5,4.4h0c0,2.6-1.8,4.4-5.1,4.4h-3.4v-8.8h0ZM59.3,24c1.5,0,2.4-.8,2.4-2.3h0c0-1.5-1-2.3-2.4-2.3h-1v4.5h1Z"/>
    <path class="st0" d="M64.8,17.3h7.1v2.1h-4.7v1.3h4.3v1.9h-4.3v1.4h4.8v2.1h-7.1v-8.8h0Z"/>
    <path class="st0" d="M71.9,24.9l1.4-1.7c.9.7,1.8,1,2.9,1s1-.3,1-.6h0c0-.3-.3-.6-1.5-.9-1.9-.4-3.3-1-3.3-2.8h0c0-1.7,1.3-2.9,3.4-2.9s2.7.4,3.7,1.1l-1.2,1.7c-.8-.6-1.7-.9-2.4-.9s-.9.3-.9.6h0c0,.4.3.6,1.6.9,2,.4,3.3,1.1,3.3,2.8h0c0,1.8-1.4,2.9-3.6,2.9s-3-.5-4.2-1.5h-.2Z"/>
    <path class="st0" d="M80.2,17.3h3.7c2.3,0,3.7,1.1,3.7,3.1h0c0,2.1-1.6,3.2-3.8,3.2h-1.2v2.5h-2.4v-8.8h0ZM83.8,21.7c.9,0,1.4-.4,1.4-1.1h0c0-.8-.5-1.2-1.4-1.2h-1.1v2.4s1.1,0,1.1,0Z"/>
    <path class="st0" d="M90.2,17.3h2.4l3.7,8.9h-2.6l-.6-1.6h-3.4l-.6,1.6h-2.6s3.7-8.9,3.7-8.9ZM92.4,22.7l-1-2.5-1,2.5h2,0Z"/>
    <path class="st0" d="M96.6,17.3h4.2c1.4,0,2.3.3,2.9,1,.5.5.8,1.2.8,2.1h0c0,1.4-.7,2.3-1.8,2.7l2.1,3h-2.8l-1.7-2.7h-1v2.7h-2.4v-8.8h0ZM100.7,21.5c.9,0,1.3-.4,1.3-1h0c0-.7-.5-1-1.3-1h-1.6v2.1h1.7,0Z"/>
    <path class="st0" d="M108,17.3h2.4l3.7,8.9h-2.6l-.6-1.6h-3.4l-.6,1.6h-2.6s3.7-8.9,3.7-8.9ZM110.1,22.7l-1-2.5-1,2.5h2,0Z"/>
    <path class="st0" d="M113.5,24.9l1.4-1.7c.9.7,1.8,1,2.9,1s1-.3,1-.6h0c0-.3-.3-.6-1.5-.9-1.9-.4-3.3-1-3.3-2.8h0c0-1.7,1.3-2.9,3.4-2.9s2.7.4,3.7,1.1l-1.2,1.7c-.8-.6-1.7-.9-2.4-.9s-.9.3-.9.6h0c0,.4.3.6,1.6.9,2,.4,3.3,1.1,3.3,2.8h0c0,1.8-1.4,2.9-3.6,2.9s-3-.5-4.2-1.5h-.2Z"/>
    <path class="st0" d="M121.8,17.3h2.4v8.8h-2.4v-8.8Z"/>
    <path class="st0" d="M127.4,19.5h-2.6v-2.2h7.8v2.2h-2.6v6.7h-2.4v-6.7h0Z"/>
    <path class="st0" d="M134.9,17.3h2.4l3.7,8.9h-2.6l-.6-1.6h-3.4l-.6,1.6h-2.6l3.7-8.9h0ZM137.1,22.7l-1-2.5-1,2.5h2,0Z"/>
    <path class="st0" d="M141.3,17.3h2.3l3.7,4.7v-4.7h2.4v8.8h-2.2l-3.7-4.9v4.9h-2.4v-8.8Z"/>
    <path class="st0" d="M152.7,19.5h-2.6v-2.2h7.8v2.2h-2.6v6.7h-2.4v-6.7h0Z"/>
    <path class="st0" d="M158.3,17.3h7.1v2.1h-4.7v1.3h4.3v1.9h-4.3v1.4h4.8v2.1h-7.1v-8.8h0Z"/>
  </g>
  <g id="_x38_GTj4Z">
    <g>
      <path class="st0" d="M19.3,23.7c0-1-.2-2.1-.9-2.9-1.6-2.2-5-1.9-7.3-1.3,0,2,.5,4.3,2.2,5.6,1.3,1,3,1.4,4.6.6.3-.1.5-.4.9-.4l1.9,1.6c.2.2,0,.7,0,1v4.4c0,1.4.2.6-.3.6s-.3-.4-.4-.7c-2.2,0-4.4,0-6.6.5l-.7.3c1.4.4,2.9.5,4.4.6,3.6.2,9.5.4,12.9-.5,0,0,.3,0,.3,0-2.3-.6-4.7-.6-7-.7-.2,0-.3-.2-.2-.5.2-.4.7-.2,1-.1,1.7,0,4.9,0,6.4.7,1.5.7.7,1.1-.2,1.4-1.8.6-4.7.6-6.7.7-3.1,0-7.5.2-10.5-.5s-1.6-.4-1.1-1.2,1.9-.7,2.5-.8c1.8-.3,3.7-.3,5.6-.3v-3.6c0-1.2.1-.4,0-.6s-1.2-1.1-1.5-1.4c-3.1,1.7-6.5,0-7.6-3.2-.3-.9-.7-2.8-.6-3.7,0-.3.6-.4.9-.5,1.8-.5,4.3-.6,6.1.2,1.5.8,2.6,2.6,2.6,4.3s-.1.9,0,.9c0,0,.5.4.6.5.4-3,1.9-6,4.2-8,.2-.2,1-.8,1.1-.3.1.5-.3.5-.6.7-1.9,1.8-3.2,3.9-3.8,6.4s-.2,1.3-.3,1.8-.3.3-.6.2c-1.7-1.4-3.4-2.8-5.3-3.8s-1.2-.4-.8-.8.3,0,.5,0c.7.2,2.3,1.3,2.9,1.7s.9.8,1.3,1,.1,0,.2,0v.2Z"/>
      <path class="st0" d="M22.6,28s.3-.1.4-.2c0-.1.2-1.2.3-1.5,1.3-3.4,5-3.6,7.9-2.2s1.5.8,1.6,1,0,.1,0,.2c0,.3-.4,1.2-.5,1.5-.7,1.5-1.8,2.9-3.3,3.5-1.6.6-3.7.7-5.1-.4-.2.2-1.2.5-1.3.8v1.4c0,.5.1.6,0,.9s-.5.3-.6,0v-2.4c-.1-.2-.1-.4,0-.5.4-.1,1.5-1,1.8-1s.5.4.6.5c1.4.9,3.7.6,5.1-.4,1-.7,1.8-2,2.2-3.2s.3-.6.1-.7-.9-.5-1.2-.6c-1.4-.6-2.9-1-4.4-.5s-2.6,1.8-2.7,3.3c1.3-.7,2.7-1.4,4.2-1.7.3,0,1-.2,1.3-.2s.4.5,0,.7c-.5.2-1.3.2-1.9.4-1.7.5-3.3,1.5-4.9,2.3-.2,0-.4,0-.5-.2s0-1,0-1.3v-.9c0-.9.2-1.8.4-2.7-.3,0-.6-.2-.4-.5s.6,0,.9,0c1.6,0,2.9-.6,4-1.7,1.8-1.9,1.6-4.4,1.4-6.8-2.6-.2-5.6,0-7,2.5-1.4,2.5-1,2.7-.6,4.1s.5.9,0,1.1-.6-.5-.7-.8c-.7-2.2.3-5.1,2.2-6.4,1.5-1,3.7-1.3,5.4-1.2.2,0,1,0,1.1.2s.2.9.2,1.1c.2,1.8,0,4.2-.9,5.8-.8,1.3-2.6,2.7-4.2,2.8s-.8,0-.8,0c-.2,1.3-.4,2.7-.4,4.1l.3-.2Z"/>
      <path class="st0" d="M19.1,10.7c-2.1-1.7.6-5.1,2.8-3.2,2,1.8-.6,5.1-2.8,3.2ZM20.2,7.7c-.5,0-1,.5-1.1,1-.4,1.2.8,2.3,2,1.8s.9-3-.9-2.8Z"/>
      <path class="st0" d="M20,16.1c-1.6,1.7-4.4-.6-2.8-2.5,1.6-2,4.5.7,2.8,2.5ZM19.5,15.7c1.2-1.2-.8-3-1.8-1.6-.9,1.2.8,2.6,1.8,1.6Z"/>
      <path class="st0" d="M12.5,11.4c2.8-.4,2.9,3.6.4,3.7-2.3.1-2.6-3.4-.4-3.7ZM13.6,14.2c1.3-1-.1-2.8-1.4-1.9s0,2.8,1.4,1.9Z"/>
      <path class="st0" d="M27.5,8.1c2.1-.2,2.6,2.9.6,3.4s-3.1-3.2-.6-3.4ZM27.5,8.7c-1.3.2-1.1,2.2.2,2.1s1.3-2.4-.2-2.1Z"/>
      <path class="st0" d="M33,14.6c1.9,1.6-.9,4.4-2.5,2.4s.9-3.7,2.5-2.4ZM31.6,14.9c-.2,0-.5.3-.7.5-.4.9.4,1.8,1.3,1.5,1.1-.4.7-2.3-.7-2h.1Z"/>
    </g>
  </g>
</svg>