<?xml version="1.0" encoding="UTF-8"?>
<svg id="Layer_1" xmlns="http://www.w3.org/2000/svg" version="1.1" viewBox="0 0 55.96 101.85">
  <!-- Generator: Adobe Illustrator 29.1.0, SVG Export Plug-In . SVG Version: 2.1.0 Build 142)  -->
  <defs>
    <style>
      .st0 {
        fill: #274e5f;
      }

      .st1 {
        fill: #fff;
      }

      .st2 {
        fill: #609440;
      }
    </style>
  </defs>
  <g>
    <rect class="st0" y="51.44" width="55.96" height="50.4"/>
    <path class="st1" d="M6.05,82.19c0,.13.03.25.11.37.11.16.26.3.39.44.14.14.28.28.42.42.15.14.31.27.48.39.15.11.3.25.49.28.21.04.4-.05.59-.13.19-.08.39-.15.59-.19.19-.04.38-.07.57-.05.04,0,.07,0,.11.02.09.02.17.04.26.06.55.15,1.07.41,1.52.75.07.06.18-.02.18-.1,0-.03,0-.06,0-.09.43.21.86.41,1.27.65.73.43,1.42,1.04,1.63,1.88.21.84-.07,1.75-.55,2.45-.07.1.04.21.14.19,0,0,.02,0,.03,0-.05.04-.09.09-.13.13-.16.17-.31.34-.45.53-.26.35-.44.75-.66,1.13-.21.37-.44.72-.7,1.06-.25.34-.52.67-.8.99-.13.16-.27.31-.4.47-.04.04-.07.09-.1.13-.2-.04-.41-.05-.61-.01-.5.1-.96.61-.93,1.13.01.27.19.49.43.6.28.12.59.11.89.11.56,0,1.22.03,1.67-.35.11-.09.19-.19.29-.29.1-.1.22-.2.31-.31.14-.16.27-.36.25-.56,0,0,.01,0,.02,0,.31-.1.61-.25.88-.43.5-.32.97-.7,1.45-1.06.49-.38.97-.76,1.49-1.1.48-.32.95-.65,1.37-1.05.31-.3.6-.62.88-.95-.02.06-.03.12-.05.18-.03.1.12.16.17.07.22-.37.48-.71.76-1.03,0,0,0,.01,0,.02.01.04.03.08.05.11.03.04.08.08.14.07.05,0,.08-.03.11-.08,0,0,0,0,0-.01.01.03.03.05.04.08.03.04.05.09.09.13.02.02.04.05.05.07,0,.01.02.02.03.03,0,0,0,0,.01.01,0,0,0,0,0,0,.04.07.16.08.2,0,.02-.03.03-.07.05-.1,0,0,.02-.04,0-.02,0-.02.01-.03.02-.05,0-.02.01-.03.02-.05.03.05.06.09.09.13.08.11.17.22.24.34.04.08.15.05.17-.02.03-.08.06-.15.12-.21.03.08.06.16.09.24,0,.02.02.04.03.05.01.06.03.12.05.17.04.09.07.17.11.26.07.18.13.36.18.54.11.4.19.81.29,1.21.1.41.24.8.35,1.2.06.2.11.4.13.61.02.13.02.26.03.39,0,.04,0,.08-.02.12-.06.23-.29.36-.39.57-.06.12-.1.26-.1.4-.2-.04-.41-.06-.6.03-.39.18-.86.61-.8,1.08.07.48.54.67.97.69.25,0,.5,0,.76,0,.24,0,.48,0,.72-.04.47-.07.8-.36,1.02-.77.24-.44.39-.94.55-1.42.16-.49.32-.99.44-1.5.12-.53.22-1.07.33-1.6.2-1.02.47-2.03.59-3.06.02,0,.05,0,.07,0,.29.01.59.02.88.02.3,0,.6,0,.9-.02.15,0,.29-.02.44-.05.02,0,.03,0,.05,0,0,0,.01,0,.02,0,.1.02.21.02.32.02.21.01.42.05.63.08.22.03.43.02.64-.01.18-.02.37-.04.51.09.06.05.16.05.21-.02.2.16.43.27.69.3.08,0,.16.01.24,0,.05,0,.1-.01.14-.03,0,0,.07-.03.07-.03.04,0,.09.08.12.11.04.04.08.08.12.12.08.08.16.17.25.25.07.07.2.02.2-.08-.01-.22.02-.44.12-.63,0,0,0-.01,0-.02,0,0,0,0,0,0,.01,0,.07.03.08.04.05.03.08.06.13.1.02.02.03.04.04.06.18.25.32.52.45.81.25.57.39,1.19.72,1.72.05.08.14.07.18.01.05.31.13.61.27.9.04.09.19.06.21-.03.01-.05.02-.11.04-.18,0,.08.02.15.02.23,0,.13,0,.26,0,.39,0,0,0,.01,0,.02,0,.17-.02.34-.06.51-.05.18-.15.3-.28.41-.29.24-.58.49-.84.75-.13.13-.26.27-.39.4-.07.07-.12.15-.18.23-.02.03-.05.06-.09.08-.08-.01-.15-.03-.23-.04-.22-.03-.46-.08-.68-.04-.2.04-.36.2-.51.33-.08.07-.16.14-.25.21-.08.06-.16.12-.2.21-.09.17-.01.4.1.54.26.34.71.39,1.11.44.23.03.45.04.68.04.06,0,.12,0,.18,0,.1,0,.21.01.31.01.34,0,.67-.06.98-.2.27-.12.51-.27.76-.42.26-.16.52-.31.77-.5.41-.32.75-.72,1.07-1.13.16-.2.34-.4.5-.61.16-.21.32-.41.5-.61.17-.19.37-.35.54-.54.07-.08.15-.18.19-.29,0,0,.01-.01.02-.02.02-.03.02-.08.03-.12,0-.08-.02-.16-.03-.24-.02-.16-.05-.33-.07-.49-.03-.24-.05-.48-.06-.72.08.1.17.19.28.27.08.05.2-.04.16-.12-.13-.34-.19-.7-.22-1.07-.02-.18-.02-.37-.02-.56,0-.06,0-.12,0-.18.04.02.08.04.12.07.39.22.78.44,1.18.65.4.2.82.37,1.23.54.21.09.42.18.63.27.1.04.2.08.3.12.07.03.15.06.22.06.07.03.15.06.22.09.21.09.42.17.62.26.07.03.13,0,.16-.06,0-.02.02-.04.02-.07.28.28.61.49.98.63.04.02.1,0,.12-.05.01-.03.02-.05.03-.07.2.06.37.18.51.34.04.04.12.03.15-.02.02-.04.03-.07.05-.11.25.24.51.47.69.77.23.36.29.78.43,1.17.14.4.31.8.44,1.21.13.4.16.81.22,1.23,0,.02,0,.03.02.04,0,.19.02.37.08.55.07.2.16.44.28.61.12.17.34.21.54.24.19.02.38,0,.55-.08.19-.09.3-.27.37-.46.08-.22.14-.45.2-.67.05-.22.12-.46.09-.69-.01-.11-.05-.22-.11-.31-.02-.02-.04-.06-.06-.09.01-.11.03-.22.03-.33.02-.25.02-.51,0-.76-.05-.95-.28-1.88-.62-2.76-.17-.44-.37-.86-.53-1.3-.08-.22-.15-.44-.21-.66-.03-.11-.05-.23-.06-.34-.01-.11-.01-.22-.05-.33,0-.03-.02-.04-.04-.06,0,0,0,0,0-.01-.07-.09-.17-.14-.26-.21-.08-.06-.16-.13-.24-.2-.15-.14-.28-.29-.4-.46-.12-.17-.23-.36-.34-.54-.05-.08-.08-.17-.17-.21-.04-.02-.07-.02-.1-.02.07-.13.13-.27.01-.37-.06-.05-.15-.07-.23-.11-.08-.05-.16-.1-.24-.16-.14-.12-.28-.25-.38-.4-.11-.17-.21-.35-.3-.53-.18-.37-.3-.76-.39-1.16-.09-.43-.16-.86-.22-1.3-.03-.22-.06-.45-.09-.67-.02-.12-.03-.24-.05-.35,0-.02-.01-.05-.02-.07,0-.06.01-.12.01-.19,0-.22-.02-.44-.06-.65-.06-.3-.15-.58-.29-.85.1.07.2.15.29.24.08.07.19,0,.17-.1-.07-.32-.21-.64-.41-.91-.1-.13-.21-.26-.33-.37-.06-.06-.12-.11-.18-.18.07.01.15.03.22.05.12.04.21-.12.12-.21-.18-.19-.41-.35-.55-.58-.11-.18-.06-.36-.03-.55.06-.1.13-.21.21-.3.13-.16.29-.31.46-.43.16-.12.36-.25.56-.31.08-.02.09-.13.02-.17-.04-.03-.07-.05-.11-.08.15-.07.3-.14.46-.21.07-.03.07-.16,0-.19-.07-.03-.13-.06-.2-.08.14-.1.29-.18.43-.26.19-.11.4-.2.6-.29.07-.03.06-.14,0-.18-.09-.05-.18-.11-.27-.16.31-.25.65-.47,1.02-.61.1-.04.1-.16,0-.2-.03-.01-.06-.03-.09-.04.14-.16.27-.32.41-.48.17-.18.42-.42.7-.33.1.04.15-.11.07-.17-.07-.05-.1-.21-.09-.29.02-.14.09-.27.17-.38.17-.27.35-.54.49-.83.15-.3.28-.6.39-.92,0,0,0-.02,0-.03.06-.13.12-.26.17-.4.12-.36.24-.72.36-1.07.06-.16.13-.3.02-.46-.06-.09-.1-.12-.06-.23.03-.08.08-.15.14-.22.07-.09-.08-.19-.15-.12-.11.1-.18-.09-.17-.17,0-.04.02-.08.03-.12.01-.01.02-.02.03-.03.12-.13.21-.26.19-.44-.02-.2-.08-.4-.12-.6-.04-.21-.07-.43-.09-.64-.02-.2-.02-.4,0-.6.01-.19-.02-.4-.13-.55-.06-.08-.09-.18-.14-.27-.05-.09-.1-.18-.14-.27-.09-.18-.19-.37-.29-.55-.03-.05-.09-.06-.13-.03-.04.02-.06.05-.09.08-.02-.09-.03-.18-.05-.26-.03-.12-.05-.24-.1-.35,0-.01-.02-.02-.03-.02,0,0,0,0,0,0,0-.01,0-.02,0,0,0-.03-.04-.05-.06-.02,0,0-.02.01-.03.02,0,0-.02.02-.02.03-.01.02-.02.04-.03.06-.02.04-.04.08-.06.12,0,.02-.02.04-.02.05-.08-.16-.16-.32-.26-.47-.12-.19-.24-.37-.38-.54-.11-.15-.24-.35-.42-.43-.01-.02-.04-.02-.06,0-.02.01-.04.04-.03.07,0,0,0,.01,0,.02,0,0,0,0,0,.01,0,.02,0,.05,0,.07,0,.06,0,.11,0,.17,0,.06,0,.11,0,.17,0,.03,0,.07,0,.1-.04-.07-.08-.14-.13-.21-.1-.14-.2-.28-.32-.41-.06-.07-.12-.13-.19-.2-.05-.05-.11-.12-.18-.12,0,0,0,0-.01,0-.02-.02-.06,0-.06.03,0,.04,0,.09,0,.13,0,.05.01.09.02.14,0,.01,0,.03.01.05-.11-.08-.22-.16-.35-.22-.16-.08-.32-.14-.49-.19-.09-.02-.17-.04-.26-.05-.07,0-.15-.02-.21.03,0,0-.01.02-.01.03-.01,0-.02.02-.01.03.02.06.06.1.1.15.03.03.05.07.08.11-.17-.05-.34-.08-.5-.1-.2-.03-.4-.04-.61-.03-.13,0-.37,0-.44.14-.01,0-.03,0-.04,0-.03,0-.05.04-.03.06.02.02.04.04.06.06.03.02.05.03.08.05.06.03.11.06.16.09.03.01.05.03.08.04,0,0-.01,0-.02,0-.22,0-.45.02-.67.07-.38.1-.74.3-1.01.59-.29.31-.51.77-.37,1.2.12.39.5.69.92.62.24-.04.48-.15.71-.23.1,0,.2-.01.29-.02.22-.02.43-.09.64-.13.38-.08.74-.06,1.06.19.31.24.57.56.82.85.25.31.46.65.56,1.04.02.07.03.14.05.21-.11.4-.16.83-.24,1.23-.09.47-.2.94-.4,1.38-.36.81-.97,1.49-1.5,2.18-.56.72-1.09,1.46-1.76,2.07-.61.56-1.29,1.06-2.02,1.44-.26.14-.54.26-.82.35-.04,0-.08,0-.11,0-.11,0-.21.01-.31,0-.21-.02-.41-.08-.6-.16-.1-.04-.2-.08-.3-.11-.12-.03-.2,0-.32,0-.22.02-.44.02-.66.03-1.59.07-3.19.03-4.78.08-.8.02-1.59.06-2.39.14-.36.04-.73.08-1.09.14-.08,0-.16.01-.25.02-.22.02-.44.05-.65.08-.44.07-.87.16-1.3.26-.37.08-.75.16-1.12.26-.38.1-.75.22-1.12.32-.76.21-1.52.25-2.3.27-.78.02-1.57.04-2.34.2-.37.07-.74.18-1.1.29-.18.06-.39.1-.55.19-.02,0-.03.02-.05.03,0,0,0,0-.01,0-.27.02-.53.03-.8.02-.51-.02-1.02-.06-1.53-.09-.53-.04-1.06-.05-1.58-.13-.53-.08-1.05-.19-1.58-.3-.27-.05-.53-.1-.8-.15-.04,0-.08,0-.11-.01-.34-.15-.68-.31-.99-.5-.16-.1-.32-.21-.47-.32-.15-.12-.29-.25-.44-.36-.14-.1-.32-.21-.5-.22-.2-.01-.34.12-.38.3-.04.19-.04.4-.02.59,0,.04,0,.08.01.13-.03-.02-.07-.04-.1-.07-.08-.06-.17-.11-.27-.12-.11,0-.21.06-.24.17-.03.1,0,.19.04.29.05.11.1.22.14.33.04.08.08.2.13.3-.05.02-.1.04-.13.07-.12.07-.23.17-.33.27-.1.1-.17.22-.25.33-.08.11-.22.19-.33.26-.23.15-.43.33-.61.54-.09.11-.17.21-.23.34-.03.05-.05.11-.06.16-.02.03-.04.06-.05.1-.07.16-.12.32-.14.49-.02.17,0,.34-.05.5-.09.33-.3.59-.45.9-.09.19-.24.51-.18.75Z"/>
  </g>
  <g>
    <rect class="st2" x="0" width="55.96" height="50.4"/>
    <path class="st1" d="M16.76,28.66s-.19,2.27-.39,4.86c-.19,2.59-3.11,3.92-3.47,4.47-.36.55-1.04,6.48-1.04,6.48,0,0,.13.65.65,1.07.52.42,3.57,0,3.57,0,.13-1.59-.78-.88-1.43-2.59-.65-1.72,1.17-4.02,2.92-4.99,1.75-.97,3.53-3.02,3.53-3.02-.1.91-2.01,3.15-1.85,3.47.16.32,2.01,3.34,2.4,4.22.39.88.81,1.23.81,1.23,1.2.58,3.76-.45,3.76-.45-.03-.62-.65-1.72-2.17-1.91s-.84-.71-1.46-2.24c-.62-1.52,1.01-3.02,2.08-4.22,1.07-1.2,1.07-1.98,1.46-3.24.39-1.26,1.98-1.04,1.98-1.04,1.75,2.5,7.33,3.34,7.65,3.47.32.13.13,6.84.13,6.84,0,0-.03,3.83.03,4.83.06,1.01.62,1.95,1.3,2.08.68.13,2.95-.13,2.95-.13,0,0,.42-.88-.97-1.88-1.39-1.01-.65-3.31-.55-4.28.1-.97,1.17-7.3,1.17-7.3l.78,7.85s1.23,2.95,1.75,3.57c.52.62,2.24.75,2.69.75s.91-.29.91-.29l.55-.06c.13-.88-.45-1.88-1.75-2.3-1.3-.42-1.56-2.02-1.8-2.9-.24-.88.05-8.16.64-10.04.58-1.88.17-4.13.61-5.56.43-1.43,1.23-4.07,1.49-4.51.26-.44,1.91-.32,2.61-.47s.66-.76.66-.76c0,0,.23.29.6.18s.44-.91.5-1.28c.06-.37-.21-.88-.21-.88.5-.65-.25-1.27-.79-1.36-.54-.09-1.19-.63-1.19-.63.09-2.18-2.4-3.16-2.92-3.29-.52-.13-3.08.16-3.6.52-.52.36-3.76,2.3-4.12,2.59-.36.29-.06.97-.19,1.88-.13.91,1.33,2.17,1.33,2.17,0,0-.42.55-1.62,1.43-1.2.88-7.78.91-7.78.91-.47.12-2.89-.51-6.05-.66-3.16-.15-6.08,2.67-6.42,3.65,0,0-3.81,7.78-7.58,7.82-2.93.04-3.26.49-2.05.88,1.22.39,4.55,1.87,9.91-4.95Z"/>
  </g>
</svg>