<?xml version="1.0" encoding="UTF-8"?>
<svg id="Layer_1" xmlns="http://www.w3.org/2000/svg" xmlns:xlink="http://www.w3.org/1999/xlink" version="1.1" viewBox="0 0 600 600">
  <!-- Generator: Adobe Illustrator 29.1.0, SVG Export Plug-In . SVG Version: 2.1.0 Build 142)  -->
  <defs>
    <style>
      .st0 {
        fill: #c2cfc7;
      }

      .st1 {
        filter: url(#drop-shadow-1);
      }

      .st2 {
        filter: url(#drop-shadow-2);
      }

      .st3 {
        fill: #002d3a;
        opacity: .65;
      }

      .st4 {
        fill: #7bc36b;
      }

      .st5 {
        fill: #fff;
      }
    </style>
    <filter id="drop-shadow-1" x="113.5" y="21.5" width="373" height="373" filterUnits="userSpaceOnUse">
      <feOffset dx="0" dy="5.67"/>
      <feGaussianBlur result="blur" stdDeviation="2.83"/>
      <feFlood flood-color="#000" flood-opacity=".65"/>
      <feComposite in2="blur" operator="in"/>
      <feComposite in="SourceGraphic"/>
    </filter>
    <filter id="drop-shadow-2" x="114" y="411" width="383" height="174" filterUnits="userSpaceOnUse">
      <feOffset dx="7" dy="7"/>
      <feGaussianBlur result="blur1" stdDeviation="5"/>
      <feFlood flood-color="#000" flood-opacity=".75"/>
      <feComposite in2="blur1" operator="in"/>
      <feComposite in="SourceGraphic"/>
    </filter>
  </defs>
  <g class="st1">
    <path class="st3" d="M360.42,59.27c55.71,23.56,94.8,78.73,94.8,143.03,0,85.73-69.5,155.23-155.23,155.23s-155.23-69.5-155.23-155.23S214.27,47.07,300,47.07c21.43,0,41.85,4.34,60.42,12.2"/>
    <path class="st0" d="M300,379.83c-97.89,0-177.54-79.64-177.54-177.54S202.11,24.76,300,24.76c23.97,0,47.22,4.69,69.11,13.95,65.87,27.86,108.43,92.07,108.43,163.58,0,97.89-79.64,177.54-177.54,177.54ZM300,31.46c-94.2,0-170.83,76.63-170.83,170.83s76.63,170.83,170.83,170.83,170.83-76.63,170.83-170.83c0-68.81-40.95-130.6-104.34-157.41-21.06-8.91-43.43-13.42-66.5-13.42Z"/>
    <g>
      <path class="st4" d="M398.51,106.72c-.87,0-1.75-.33-2.42-1-47.57-47.38-125.62-52.44-177.7-11.5-1.49,1.17-3.65.91-4.82-.58-1.17-1.49-.91-3.65.58-4.82,54.76-43.05,136.81-37.76,186.79,12.03,1.34,1.34,1.35,3.51,0,4.85-.67.67-1.55,1.01-2.43,1.01Z"/>
      <path class="st4" d="M172.89,261.99c-1.32,0-2.57-.76-3.14-2.04-19.77-44.71-14.25-98.08,14.41-139.28,1.08-1.56,3.21-1.94,4.78-.86,1.55,1.08,1.94,3.22.86,4.78-27.3,39.25-32.57,90.05-13.77,132.59.77,1.73-.02,3.76-1.75,4.52-.45.2-.92.29-1.39.29Z"/>
      <path class="st4" d="M215.45,316.44c-.73,0-1.46-.23-2.08-.71-7.59-5.81-14.63-12.46-20.92-19.77-1.24-1.44-1.08-3.6.36-4.84,1.43-1.23,3.6-1.08,4.84.36,5.98,6.95,12.67,13.28,19.89,18.79,1.5,1.15,1.79,3.3.64,4.81-.67.88-1.7,1.35-2.73,1.35Z"/>
      <path class="st4" d="M300.1,344.86c-16.91,0-34-3.01-50.07-8.97-1.78-.66-2.68-2.63-2.02-4.41s2.64-2.69,4.41-2.03c25.36,9.4,53.36,11.11,78.85,4.81,35.91-8.87,67.36-33.88,86.29-68.61,18.74-34.39,22.69-73.92,10.84-108.46-.61-1.79.34-3.74,2.13-4.36,1.79-.61,3.74.34,4.36,2.13,12.47,36.36,8.35,77.9-11.31,113.97-19.85,36.42-52.9,62.66-90.67,71.99-10.64,2.63-21.69,3.93-32.81,3.93Z"/>
      <path class="st4" d="M425,143.63c-1.26,0-2.48-.7-3.08-1.91-1.59-3.2-3.32-6.39-5.16-9.46-.97-1.63-.44-3.73,1.19-4.7,1.63-.97,3.74-.44,4.7,1.19,1.92,3.22,3.75,6.56,5.41,9.92.84,1.7.15,3.76-1.55,4.6-.49.24-1.01.36-1.52.36Z"/>
    </g>
    <g>
      <g>
        <path class="st5" d="M204.59,184.73c.79,9.72,2.01,19.39,4.34,28.88,1.18,4.79,3.04,9.22,6.19,13.14,4.7,5.84,9.17,11.86,13.74,17.81,4.18,5.44,8.34,10.89,12.52,16.33,4.09,5.34,8.18,10.67,12.25,16.01.66.87,1.31,1.67,2.55,1.51,1.2-.16,1.58-1.08,1.93-2.06,1.72-4.82,3.41-9.65,5.21-14.44,2.18-5.82,3.69-11.79,3.98-18.01.77-16.59-4.57-30.97-16.06-42.92-7.83-8.14-17.42-13.37-28.48-15.81-5.95-1.31-11.96-1.59-18.1-.99-.04.28-.08.41-.07.54ZM235.68,226.24c-2.17,2.07-5.69,1.96-7.79-.23-2-2.08-1.93-5.65.17-7.7,2.2-2.15,5.64-2.12,7.75.06,2.18,2.25,2.13,5.73-.12,7.86Z"/>
        <path class="st5" d="M286.67,164.28c-6.17.25-11.45-1.09-15.5-5.74-.1.07-.21.14-.31.22,1.61,2.96,3.22,5.93,4.87,8.98-5.23-.76-9.38-3.1-12.18-7.76-2.21,2.14-4.32,4.19-6.58,6.38-11.74-6.2-23.66-12.5-35.61-18.82,12.21-14.11,37.6-25.78,64.81-17.32-1.34,7.72-2.69,15.45-4.04,23.21-1.37.1-2.64.19-4.13.3,2.41,3.97,5.55,7.08,8.67,10.55Z"/>
        <path class="st5" d="M269.23,170.82c-3.92,5.5-8.9,8.29-15.72,7.35,4.4,2.96,9.52,3.57,14.53,4.58-2.49,3.55-8.61,4.99-15.58,3.67.43,4.69,1.55,9.14,3.7,13.36-13.95-14.55-30.92-21.29-51.37-19.92.8-2.96,1.46-5.84,2.35-8.65,2.25-7.13,5.83-13.57,10.37-19.5.56-.73.99-.38,1.51-.11,8.14,4.23,16.27,8.47,24.41,12.69,3.24,1.68,6.41,3.53,9.77,4.93,4.94,2.06,10.12,2.78,15.45,1.58.12-.03.25,0,.58.02Z"/>
        <path class="st5" d="M286.84,153.83c1.28-7.32,2.55-14.61,3.85-22.07,7.15,2.76,13.42,6.71,19.06,11.71,8.68,7.69,14.69,17.1,18.34,28.29-2.29.33-4.44.64-6.6.95-3.44.49-6.88.98-10.32,1.48-.68.1-1.15.15-1.47-.71-3.93-10.48-11.43-16.9-22.29-19.45-.17-.04-.34-.11-.57-.19Z"/>
        <path class="st5" d="M314.13,202.18c-2.53,1.12-4.98,2.31-7.53,3.26-.62.23-1.73-.13-2.29-.6-.78-.65-.59-1.66-.02-2.5.13-.19.27-.37.41-.55,2.67-3.37,4.64-7.1,5.71-11.28.86-3.36,1.12-6.76.8-10.21-.04-.41-.05-.81-.08-1.33,6.1-.87,12.15-1.74,18.25-2.61,1.53,6.4,2.01,12.76,1.54,19.18-.78,10.7-4.1,20.56-9.85,29.62-.55.87-1.11,1.71-2.31,1.67-1.21-.04-1.67-.91-2.11-1.86-3.13-6.75-4.21-13.77-2.8-21.12.11-.58.2-1.16.29-1.65Z"/>
      </g>
      <g>
        <path class="st5" d="M394.08,229.96c1.04-9.7,1.66-19.42,1.15-29.18-.26-4.93-1.26-9.63-3.62-14.07-3.52-6.62-6.79-13.37-10.16-20.07-3.08-6.13-6.16-12.26-9.24-18.39-3.02-6.01-6.04-12.01-9.04-18.03-.49-.98-.98-1.89-2.23-1.96-1.21-.07-1.75.77-2.28,1.66-2.6,4.41-5.16,8.84-7.82,13.21-3.23,5.31-5.83,10.89-7.28,16.95-3.86,16.15-1.31,31.28,7.74,45.16,6.16,9.46,14.61,16.39,25.01,20.86,5.6,2.4,11.45,3.8,17.59,4.36.09-.27.16-.39.17-.52ZM371.31,183.36c2.52-1.62,5.96-.86,7.61,1.68,1.58,2.42.84,5.91-1.61,7.53-2.56,1.7-5.94,1.03-7.6-1.51-1.72-2.62-1.02-6.02,1.59-7.7Z"/>
        <path class="st5" d="M309.63,234.68c6.11.91,11.05,3.21,14.16,8.54.11-.05.23-.1.34-.15-1.03-3.21-2.05-6.42-3.11-9.73,5,1.73,8.63,4.81,10.52,9.9,2.57-1.69,5.03-3.31,7.66-5.04,10.37,8.29,20.9,16.71,31.45,25.15-14.64,11.57-41.77,18.29-66.9,4.88,2.77-7.33,5.54-14.68,8.32-22.04,1.36.16,2.62.3,4.11.47-1.62-4.35-4.13-7.99-6.54-11.99Z"/>
        <path class="st5" d="M327.98,231.52c4.88-4.67,10.3-6.47,16.82-4.28-3.77-3.73-8.68-5.29-13.41-7.22,3.11-3.02,9.39-3.29,15.99-.69.45-4.69.19-9.27-1.13-13.82,10.98,16.91,26.38,26.7,46.73,29.19-1.34,2.76-2.53,5.47-3.93,8.06-3.55,6.58-8.27,12.24-13.84,17.21-.68.61-1.05.19-1.5-.17-7.2-5.68-14.4-11.37-21.6-17.04-2.87-2.26-5.63-4.67-8.67-6.67-4.47-2.95-9.42-4.62-14.88-4.44-.12,0-.25-.06-.57-.13Z"/>
        <path class="st5" d="M307.5,244.91c-2.63,6.95-5.24,13.88-7.91,20.96-6.5-4.05-11.93-9.11-16.53-15.07-7.09-9.18-11.23-19.55-12.72-31.23,2.31.11,4.48.2,6.66.3,3.47.16,6.94.33,10.42.48.68.03,1.15.07,1.31.97,1.9,11.03,8.06,18.74,18.26,23.28.16.07.31.17.53.3Z"/>
        <path class="st5" d="M289.75,192.31c2.69-.63,5.33-1.34,8.01-1.79.66-.11,1.67.45,2.14,1.02.65.78.27,1.74-.44,2.46-.16.16-.34.31-.51.46-3.26,2.81-5.89,6.11-7.73,10.02-1.48,3.14-2.37,6.43-2.7,9.88-.04.41-.1.81-.17,1.32-6.16-.28-12.26-.57-18.41-.85-.3-6.57.42-12.91,2.08-19.13,2.77-10.36,7.88-19.43,15.22-27.25.71-.75,1.41-1.47,2.58-1.21,1.18.27,1.47,1.2,1.73,2.22,1.81,7.22,1.55,14.32-1.21,21.27-.22.55-.42,1.1-.59,1.57Z"/>
      </g>
    </g>
  </g>
  <g class="st2">
    <path class="st5" d="M193.29,424.88h15.19v41.5h26.54v13.31h-41.73v-54.8Z"/>
    <path class="st5" d="M242.85,437.33h14.88v42.36h-14.88v-42.36ZM252.4,419.25l13.86,4.46-11.51,10.02h-10.49l8.14-14.48Z"/>
    <path class="st5" d="M267.9,437.33h14.88v5.95c2.74-3.52,6.66-6.89,12.68-6.89,9,0,14.41,5.95,14.41,15.58v27.72h-14.88v-22.94c0-4.62-2.43-7.12-5.95-7.12s-6.26,2.51-6.26,7.12v22.94h-14.88v-42.36Z"/>
    <path class="st5" d="M317.69,458.71v-.16c0-12.37,8.85-22.16,21.37-22.16,14.64,0,21.37,10.73,21.37,23.17,0,.94,0,2.04-.08,3.05h-28.34c1.17,4.62,4.54,6.97,9.16,6.97,3.52,0,6.34-1.33,9.39-4.31l8.22,6.81c-4.07,5.17-9.94,8.61-18.4,8.61-13.31,0-22.71-8.85-22.71-22ZM346.5,455.03c-.55-4.7-3.29-7.67-7.36-7.67s-6.58,3.05-7.36,7.67h14.72Z"/>
    <path class="st5" d="M366.54,467.55v-.16c0-8.77,6.66-13.31,16.6-13.31,3.91,0,7.75.78,10.18,1.64v-.7c0-4.38-2.74-6.89-8.46-6.89-4.46,0-7.91.86-11.67,2.35l-3.05-10.49c4.78-1.96,9.87-3.29,17.15-3.29s12.76,1.8,16.13,5.17c3.21,3.13,4.54,7.52,4.54,13.47v24.35h-14.72v-4.38c-2.9,3.21-6.89,5.32-12.45,5.32-8.06,0-14.25-4.62-14.25-13.08ZM393.48,464.34v-1.96c-1.49-.63-3.6-1.1-5.79-1.1-4.31,0-6.81,2.11-6.81,5.25v.16c0,2.9,2.19,4.62,5.25,4.62,4.31,0,7.36-2.74,7.36-6.97Z"/>
    <path class="st5" d="M145.58,506.5h14.64l23.33,55.2h-16.29l-3.99-9.79h-21.14l-3.92,9.79h-15.97l23.33-55.2ZM158.89,540.09l-6.11-15.58-6.18,15.58h12.29Z"/>
    <path class="st5" d="M186.45,540.72v-.16c0-11.98,9.32-22.08,22.71-22.08,8.69,0,14.48,3.76,18.08,9.47l-10.1,7.52c-2.04-2.82-4.31-4.46-7.91-4.46-4.78,0-8.3,4.23-8.3,9.39v.16c0,5.48,3.44,9.63,8.46,9.63,3.52,0,5.79-1.64,8.14-4.38l9.94,7.2c-3.92,5.79-9.55,9.71-18.87,9.71-12.76,0-22.16-10.02-22.16-22Z"/>
    <path class="st5" d="M234.28,547.06v-27.72h14.88v22.94c0,4.62,2.43,7.12,6.03,7.12s6.19-2.5,6.19-7.12v-22.94h14.88v42.36h-14.88v-5.79c-2.74,3.52-6.66,6.73-12.68,6.73-9,0-14.41-5.95-14.41-15.58Z"/>
    <path class="st5" d="M286.42,519.34h14.88v42.36h-14.88v-42.36ZM295.97,501.26l13.86,4.46-11.51,10.02h-10.49l8.14-14.48Z"/>
    <path class="st5" d="M309.75,540.72v-.16c0-11.98,9.32-22.08,22.71-22.08,8.69,0,14.48,3.76,18.09,9.47l-10.1,7.52c-2.04-2.82-4.31-4.46-7.91-4.46-4.78,0-8.3,4.23-8.3,9.39v.16c0,5.48,3.44,9.63,8.46,9.63,3.52,0,5.79-1.64,8.14-4.38l9.94,7.2c-3.92,5.79-9.55,9.71-18.87,9.71-12.76,0-22.16-10.02-22.16-22Z"/>
    <path class="st5" d="M355,540.72v-.16c0-12.06,9.87-22.16,23.49-22.16s23.33,9.94,23.33,22v.16c0,12.06-9.87,22.16-23.49,22.16s-23.33-9.94-23.33-22ZM387.33,540.72v-.16c0-5.17-3.76-9.55-9-9.55s-8.85,4.31-8.85,9.39v.16c0,5.17,3.76,9.55,9,9.55s8.85-4.31,8.85-9.4Z"/>
    <path class="st5" d="M410.27,504.55h14.88v57.15h-14.88v-57.15Z"/>
    <path class="st5" d="M433.21,549.56v-.16c0-8.77,6.66-13.31,16.6-13.31,3.91,0,7.75.78,10.18,1.64v-.7c0-4.38-2.74-6.89-8.46-6.89-4.46,0-7.91.86-11.67,2.35l-3.05-10.49c4.78-1.96,9.87-3.29,17.15-3.29s12.76,1.8,16.13,5.17c3.21,3.13,4.54,7.52,4.54,13.47v24.35h-14.72v-4.38c-2.9,3.21-6.89,5.32-12.45,5.32-8.06,0-14.25-4.62-14.25-13.08ZM460.14,546.35v-1.96c-1.49-.63-3.6-1.1-5.79-1.1-4.31,0-6.81,2.11-6.81,5.25v.16c0,2.9,2.19,4.62,5.25,4.62,4.31,0,7.36-2.74,7.36-6.97Z"/>
  </g>
</svg>